<svg xmlns="http://www.w3.org/2000/svg" width="31.996" height="31.999" viewBox="0 0 31.996 31.999">
  <path id="Antenna_1" data-name="Antenna 1" d="M998.219,1345.779a11.013,11.013,0,0,1,0-15.557l3.535-3.535,15.557,15.556-3.534,3.537a11.008,11.008,0,0,1-15.557,0Zm1.414-14.143a9,9,0,0,0,12.729,12.728l2.121-2.122-12.729-12.727Zm1.414,1.414,1.415,1.414a5.007,5.007,0,0,0,0,7.072l-1.415,1.415A7.012,7.012,0,0,1,1001.047,1333.05Zm10.365,1.363a2,2,0,0,0,0-2.827,2.045,2.045,0,0,0-2.828,0l-1.415-1.415a4.1,4.1,0,0,1,5.657,0,4,4,0,0,1,0,5.656ZM1025,1332.95A13.976,13.976,0,0,0,1011.047,1319v-2A15.977,15.977,0,0,1,1027,1332.95Zm-6.04-.041a8.985,8.985,0,0,0-8.969-9v-2a10.987,10.987,0,0,1,10.969,11Z" transform="translate(-995.002 -1317)" fill="#ef4035"/>
</svg>
