<svg xmlns="http://www.w3.org/2000/svg" width="25.988" height="31.999" viewBox="0 0 25.988 31.999">
  <path id="Chemical_Glass" data-name="Chemical Glass" d="M1144.631,1205l-.292-.292a8.129,8.129,0,0,1-.016-11.414l6.645-6.707V1177h2v10.414l-7.23,7.293a6.135,6.135,0,0,0-.259,8.293h19a6.166,6.166,0,0,0-.257-8.293l-7.231-7.293V1177h2v9.586l6.645,6.707a8.087,8.087,0,0,1-.015,11.414l-.292.292Zm1.355-6a4.015,4.015,0,0,1,1.164-2.874l6.995-7,1.412,1.415-6.995,7a2.028,2.028,0,0,0-.578,1.454,2.177,2.177,0,0,0,.109.69l-1.892.639A4.13,4.13,0,0,1,1145.986,1198.994ZM1148.97,1175v-2h11.99v2Z" transform="translate(-1141.99 -1173)" fill="#ef4035"/>
</svg>
