<svg xmlns="http://www.w3.org/2000/svg" width="72.112" height="43.09" viewBox="0 0 72.112 43.09">
  <g id="desktop" transform="translate(-1237.597 -2732.101)">
    <g id="Контур_7" data-name="Контур 7" fill="none" stroke-linejoin="round">
      <path d="M1242.461,2733.1h62.214v36.907h-62.214Z" stroke="none"/>
      <path d="M 1242.4609375 2733.10107421875 L 1242.4609375 2770.008544921875 L 1304.674438476563 2770.008544921875 L 1304.674438476563 2733.10107421875 L 1242.4609375 2733.10107421875 M 1242.4609375 2732.10107421875 L 1304.674438476563 2732.10107421875 C 1305.226684570313 2732.10107421875 1305.674438476563 2732.548828125 1305.674438476563 2733.10107421875 L 1305.674438476563 2770.008544921875 C 1305.674438476563 2770.560791015625 1305.226684570313 2771.008544921875 1304.674438476563 2771.008544921875 L 1242.4609375 2771.008544921875 C 1241.90869140625 2771.008544921875 1241.4609375 2770.560791015625 1241.4609375 2770.008544921875 L 1241.4609375 2733.10107421875 C 1241.4609375 2732.548828125 1241.90869140625 2732.10107421875 1242.4609375 2732.10107421875 Z" stroke="none" fill="#dbdbdb"/>
    </g>
    <g id="Контур_8" data-name="Контур 8" transform="translate(0 -1)" fill="none" stroke-linejoin="round">
      <path d="M1237.6,2775.191h0Z" stroke="none"/>
      <path d="M 1237.59716796875 2775.191162109375 L 1309.708984375 2775.191162109375 L 1237.59716796875 2775.191162109375 M 1237.59716796875 2774.191162109375 L 1309.708984375 2774.191162109375 C 1310.26123046875 2774.191162109375 1310.708984375 2774.638916015625 1310.708984375 2775.191162109375 C 1310.708984375 2775.743408203125 1310.26123046875 2776.191162109375 1309.708984375 2776.191162109375 L 1237.59716796875 2776.191162109375 C 1237.044921875 2776.191162109375 1236.59716796875 2775.743408203125 1236.59716796875 2775.191162109375 C 1236.59716796875 2774.638916015625 1237.044921875 2774.191162109375 1237.59716796875 2774.191162109375 Z" stroke="none" fill="#dbdbdb"/>
    </g>
  </g>
</svg>
