<svg xmlns="http://www.w3.org/2000/svg" width="25.585" height="45.638" viewBox="0 0 25.585 45.638">
  <g id="phone" transform="translate(-1093.176 -2731.275)">
    <g id="Контур_1" data-name="Контур 1" transform="translate(0 0.269)" fill="none" stroke-linecap="round" stroke-linejoin="round">
      <path d="M1094.5,2732.006h23.266v43.638h-23.585Z" stroke="none"/>
      <path d="M 1094.495361328125 2732.006103515625 L 1094.17578125 2775.643798828125 L 1117.76123046875 2775.643798828125 L 1117.76123046875 2732.006103515625 L 1094.495361328125 2732.006103515625 M 1094.495361328125 2731.006103515625 L 1117.76123046875 2731.006103515625 C 1118.3134765625 2731.006103515625 1118.76123046875 2731.453857421875 1118.76123046875 2732.006103515625 L 1118.76123046875 2775.643798828125 C 1118.76123046875 2776.196044921875 1118.3134765625 2776.643798828125 1117.76123046875 2776.643798828125 L 1094.17578125 2776.643798828125 C 1093.909301757813 2776.643798828125 1093.65380859375 2776.537353515625 1093.466064453125 2776.348388671875 C 1093.2783203125 2776.1591796875 1093.173828125 2775.903076171875 1093.17578125 2775.636474609375 L 1093.495361328125 2731.998779296875 C 1093.499389648438 2731.449462890625 1093.945922851563 2731.006103515625 1094.495361328125 2731.006103515625 Z" stroke="none" fill="#dbdbdb"/>
    </g>
    <g id="Контур_2" data-name="Контур 2" transform="translate(-0.409 -0.051)" fill="none" stroke-linejoin="round">
      <path d="M1106.616,2733.26v.963h-.82v-.963Z" stroke="none"/>
      <path d="M 1105.796264648438 2733.26025390625 L 1105.796264648438 2734.22314453125 L 1106.6162109375 2734.22314453125 L 1106.6162109375 2733.26025390625 L 1105.796264648438 2733.26025390625 M 1105.796264648438 2733.060302734375 L 1106.6162109375 2733.060302734375 C 1106.726684570313 2733.060302734375 1106.816162109375 2733.14990234375 1106.816162109375 2733.26025390625 L 1106.816162109375 2734.22314453125 C 1106.816162109375 2734.33349609375 1106.726684570313 2734.423095703125 1106.6162109375 2734.423095703125 L 1105.796264648438 2734.423095703125 C 1105.685791015625 2734.423095703125 1105.596313476563 2734.33349609375 1105.596313476563 2734.22314453125 L 1105.596313476563 2733.26025390625 C 1105.596313476563 2733.14990234375 1105.685791015625 2733.060302734375 1105.796264648438 2733.060302734375 Z" stroke="none" fill="#dbdbdb"/>
    </g>
    <g id="Контур_3" data-name="Контур 3" transform="translate(-1)" fill="none" stroke-linejoin="round">
      <path d="M1097.081,2737.024h20.06V2767h-20.06Z" stroke="none"/>
      <path d="M 1097.080932617188 2737.02392578125 L 1097.080932617188 2766.999755859375 L 1117.14111328125 2766.999755859375 L 1117.14111328125 2737.02392578125 L 1097.080932617188 2737.02392578125 M 1097.080932617188 2736.02392578125 L 1117.14111328125 2736.02392578125 C 1117.693359375 2736.02392578125 1118.14111328125 2736.4716796875 1118.14111328125 2737.02392578125 L 1118.14111328125 2766.999755859375 C 1118.14111328125 2767.552001953125 1117.693359375 2767.999755859375 1117.14111328125 2767.999755859375 L 1097.080932617188 2767.999755859375 C 1096.528686523438 2767.999755859375 1096.080932617188 2767.552001953125 1096.080932617188 2766.999755859375 L 1096.080932617188 2737.02392578125 C 1096.080932617188 2736.4716796875 1096.528686523438 2736.02392578125 1097.080932617188 2736.02392578125 Z" stroke="none" fill="#dbdbdb"/>
    </g>
    <path id="Контур_4" data-name="Контур 4" d="M1104.608,2771.753l2.311-2.311,2.311,2.311-2.311,2.311Z" transform="translate(-1)" fill="none" stroke="#dbdbdb" stroke-linecap="round" stroke-linejoin="round" stroke-width="1"/>
  </g>
</svg>
