<svg xmlns="http://www.w3.org/2000/svg" width="26" height="32" viewBox="0 0 26 32">
  <path id="Shield" d="M1584.75,1350.009l-9.369-5.008c-2.218-1.327-2.38-2.78-2.38-4.991h0v-13h2v13c0,2.028.129,2.538,1.5,3.329l0,0,8.746,4.667h1.5l8.751-4.671c1.37-.791,1.5-1.3,1.5-3.329v-13h2v13h0c0,2.212-.162,3.664-2.381,4.991l-.148.087-9.221,4.92Zm-5.75-10v-2h14v2Zm0-4v-2h14v2Zm0-4v-2h7v2Zm13-7a7,7,0,0,0-12,0h-7v-2h7a5.006,5.006,0,0,0,5-5h2a5.007,5.007,0,0,0,5,5h7v2Z" transform="translate(-1573 -1318.01)" fill="#ef4035"/>
</svg>
