<svg xmlns="http://www.w3.org/2000/svg" width="36.056" height="45.859" viewBox="0 0 36.056 45.859">
  <g id="tablet" transform="translate(-1160.508 -2731.075)">
    <g id="Контур_5" data-name="Контур 5" fill="none" stroke-linejoin="round">
      <path d="M1161.736,2732.075h33.827v43.859h-34.056Z" stroke="none"/>
      <path d="M 1161.736206054688 2732.075439453125 L 1161.507690429688 2775.934326171875 L 1195.5634765625 2775.934326171875 L 1195.5634765625 2732.075439453125 L 1161.736206054688 2732.075439453125 M 1161.736206054688 2731.075439453125 L 1195.5634765625 2731.075439453125 C 1196.11572265625 2731.075439453125 1196.5634765625 2731.523193359375 1196.5634765625 2732.075439453125 L 1196.5634765625 2775.934326171875 C 1196.5634765625 2776.486572265625 1196.11572265625 2776.934326171875 1195.5634765625 2776.934326171875 L 1161.507690429688 2776.934326171875 C 1161.241577148438 2776.934326171875 1160.986450195313 2776.828369140625 1160.798706054688 2776.6396484375 C 1160.611083984375 2776.450927734375 1160.50634765625 2776.1953125 1160.507690429688 2775.92919921875 L 1160.736206054688 2732.0703125 C 1160.739135742188 2731.52001953125 1161.185913085938 2731.075439453125 1161.736206054688 2731.075439453125 Z" stroke="none" fill="#dbdbdb"/>
    </g>
    <g id="Контур_6" data-name="Контур 6" transform="translate(-1)" fill="none" stroke-linejoin="round">
      <path d="M1166.079,2738.234h26.6v28.612h-26.629Z" stroke="none"/>
      <path d="M 1166.0791015625 2738.234375 L 1166.047119140625 2766.846435546875 L 1192.676391601563 2766.846435546875 L 1192.676391601563 2738.234375 L 1166.0791015625 2738.234375 M 1166.0791015625 2737.63427734375 L 1192.676391601563 2737.63427734375 C 1193.0078125 2737.63427734375 1193.2763671875 2737.903076171875 1193.2763671875 2738.234375 L 1193.2763671875 2766.846435546875 C 1193.2763671875 2767.177734375 1193.0078125 2767.446533203125 1192.676391601563 2767.446533203125 L 1166.047119140625 2767.446533203125 C 1165.887817382813 2767.446533203125 1165.735107421875 2767.383056640625 1165.62255859375 2767.2705078125 C 1165.510131835938 2767.15771484375 1165.446899414063 2767.005126953125 1165.447143554688 2766.845703125 L 1165.479125976563 2738.233642578125 C 1165.4794921875 2737.902587890625 1165.748046875 2737.63427734375 1166.0791015625 2737.63427734375 Z" stroke="none" fill="#dbdbdb"/>
    </g>
    <circle id="Эллипс_1" data-name="Эллипс 1" cx="1.5" cy="1.5" r="1.5" transform="translate(1177 2770)" fill="none" stroke="#dbdbdb" stroke-linejoin="round" stroke-width="0.5"/>
    <circle id="Эллипс_2" data-name="Эллипс 2" cx="0.5" cy="0.5" r="0.5" transform="translate(1177.826 2734.371)" stroke-width="1" stroke="#dbdbdb" stroke-linecap="round" stroke-linejoin="bevel" fill="none"/>
  </g>
</svg>
