<svg xmlns="http://www.w3.org/2000/svg" width="31.979" height="32.009" viewBox="0 0 31.979 32.009">
  <path id="Tools" d="M1448.474,1200.538l-6.347-6.675,1.413-1.425,6.347,6.674a2.979,2.979,0,0,0,4.233-.007,3.053,3.053,0,0,0-.006-4.282l-6.335-6.663,1.412-1.425,6.336,6.663a5.083,5.083,0,0,1,.005,7.133,4.966,4.966,0,0,1-7.058.006Zm-22-.061a5.069,5.069,0,0,1,0-7.126l.119-.1,10.336-7.574,1.175,1.631-10.268,7.525a3.04,3.04,0,0,0,.051,4.222,3.046,3.046,0,0,0,4.185.052l7.461-10.357,1.617,1.186-7.612,10.544a4.964,4.964,0,0,1-7.064,0Zm2.564-2.587v-2.021h2v2.021Zm16.522-6.258,1.412-1.425,5.729,6.05-1.413,1.426Zm-7.4-7.514,1.4-1.434,3.963,3.953-1.4,1.433Zm10.342,1.191a6.924,6.924,0,0,1-4.945-2.066,7.1,7.1,0,0,1,0-9.977l1.827-1.843L1446.8,1170l3.532,3.563-2.119,2.137a2.026,2.026,0,0,0,0,2.85,1.971,1.971,0,0,0,1.412.591h0a1.974,1.974,0,0,0,1.412-.59l2.12-2.138,3.532,3.563-1.413,1.426-1.826,1.843a6.916,6.916,0,0,1-4.944,2.066Zm-3.532-10.62a5.071,5.071,0,0,0,0,7.127,4.942,4.942,0,0,0,3.532,1.477h0a4.937,4.937,0,0,0,3.531-1.477l1.827-1.842-.706-.712-.706.712a3.948,3.948,0,0,1-2.825,1.182h0a3.951,3.951,0,0,1-2.825-1.182,4.058,4.058,0,0,1,0-5.7l.706-.712-.707-.713Zm-14.659,1.767a2.965,2.965,0,0,1-1.306.3h0a2.964,2.964,0,0,1-2.119-.886l-1.413-1.426,4.238-4.274,1.413,1.425a3.05,3.05,0,0,1,.594,3.428l5.715,5.56-1.387,1.451Zm-2.012-2.011a.992.992,0,0,0,1.412,0,1.014,1.014,0,0,0,0-1.426h0Z" transform="translate(-1425.012 -1169.997)" fill="#ef4035"/>
</svg>
